<svg width="1280" height="102" viewBox="0 0 1280 102" fill="none" xmlns="http://www.w3.org/2000/svg">
<g opacity="0.1" clip-path="url(#clip0_2125_81502)">
<path d="M1174.35 12.1769C1174.2 12.0281 1174.2 11.7868 1174.35 11.638C1176.58 9.40548 1180.2 9.40548 1182.44 11.638C1182.59 11.7868 1182.59 12.0281 1182.44 12.1769C1180.2 14.4094 1176.58 14.4094 1174.35 12.1769Z" fill="#672E1F"/>
<path d="M1182.76 11.3186C1180.52 9.08609 1180.52 5.46653 1182.76 3.23405C1182.9 3.08521 1183.15 3.08521 1183.3 3.23405C1185.53 5.46653 1185.53 9.08609 1183.3 11.3186C1183.15 11.4674 1182.9 11.4674 1182.76 11.3186Z" fill="#672E1F"/>
<rect x="1178.71" y="16.5386" width="6.09773" height="6.09773" rx="0.903367" transform="rotate(-45 1178.71 16.5386)" fill="#672E1F"/>
<path d="M1183.61 12.1769C1183.47 12.0281 1183.47 11.7868 1183.61 11.638C1185.85 9.40548 1189.47 9.40548 1191.7 11.638C1191.85 11.7868 1191.85 12.0281 1191.7 12.1769C1189.47 14.4094 1185.85 14.4094 1183.61 12.1769Z" fill="#672E1F"/>
<path d="M1227.26 68.3945C1227.11 68.2457 1227.11 68.0044 1227.26 67.8555C1229.49 65.6231 1233.11 65.6231 1235.34 67.8555C1235.49 68.0044 1235.49 68.2457 1235.34 68.3945C1233.11 70.627 1229.49 70.627 1227.26 68.3945Z" fill="#672E1F"/>
<path d="M1235.66 67.5362C1233.43 65.3037 1233.43 61.6841 1235.66 59.4516C1235.81 59.3028 1236.05 59.3028 1236.2 59.4516C1238.43 61.6841 1238.43 65.3037 1236.2 67.5362C1236.05 67.685 1235.81 67.685 1235.66 67.5362Z" fill="#672E1F"/>
<rect x="1231.62" y="72.7562" width="6.09773" height="6.09773" rx="0.903367" transform="rotate(-45 1231.62 72.7562)" fill="#672E1F"/>
<path d="M1236.52 68.3945C1236.37 68.2457 1236.37 68.0044 1236.52 67.8555C1238.75 65.6231 1242.37 65.6231 1244.6 67.8555C1244.75 68.0044 1244.75 68.2457 1244.6 68.3945C1242.37 70.627 1238.75 70.627 1236.52 68.3945Z" fill="#672E1F"/>
<path d="M1072.51 10.8544C1072.36 10.7055 1072.36 10.4642 1072.51 10.3154C1074.75 8.08291 1078.37 8.08291 1080.6 10.3154C1080.75 10.4642 1080.75 10.7055 1080.6 10.8544C1078.37 13.0868 1074.75 13.0868 1072.51 10.8544Z" fill="#672E1F"/>
<path d="M1080.92 9.99599C1078.69 7.76352 1078.69 4.14395 1080.92 1.91148C1081.07 1.76264 1081.31 1.76264 1081.46 1.91148C1083.69 4.14395 1083.69 7.76352 1081.46 9.99599C1081.31 10.1448 1081.07 10.1448 1080.92 9.99599Z" fill="#672E1F"/>
<rect x="1076.88" y="15.216" width="6.09773" height="6.09773" rx="0.903367" transform="rotate(-45 1076.88 15.216)" fill="#672E1F"/>
<path d="M1081.78 10.8544C1081.63 10.7055 1081.63 10.4642 1081.78 10.3154C1084.01 8.08291 1087.63 8.08291 1089.86 10.3154C1090.01 10.4642 1090.01 10.7055 1089.86 10.8544C1087.63 13.0868 1084.01 13.0868 1081.78 10.8544Z" fill="#672E1F"/>
<path d="M1125.42 67.0719C1125.27 66.9231 1125.27 66.6818 1125.42 66.5329C1127.65 64.3005 1131.27 64.3005 1133.5 66.5329C1133.65 66.6818 1133.65 66.9231 1133.5 67.0719C1131.27 69.3044 1127.65 69.3044 1125.42 67.0719Z" fill="#672E1F"/>
<path d="M1133.82 66.2136C1131.59 63.9811 1131.59 60.3615 1133.82 58.129C1133.97 57.9802 1134.21 57.9802 1134.36 58.129C1136.59 60.3615 1136.59 63.9811 1134.36 66.2136C1134.21 66.3624 1133.97 66.3624 1133.82 66.2136Z" fill="#672E1F"/>
<rect x="1129.78" y="71.4336" width="6.09773" height="6.09773" rx="0.903367" transform="rotate(-45 1129.78 71.4336)" fill="#672E1F"/>
<path d="M1134.68 67.0719C1134.53 66.9231 1134.53 66.6818 1134.68 66.5329C1136.91 64.3005 1140.53 64.3005 1142.76 66.5329C1142.91 66.6818 1142.91 66.9231 1142.76 67.0719C1140.53 69.3044 1136.91 69.3044 1134.68 67.0719Z" fill="#672E1F"/>
<path d="M970.675 9.53175C970.526 9.38292 970.526 9.14162 970.675 8.99278C972.908 6.76031 976.527 6.76031 978.76 8.99278C978.909 9.14162 978.909 9.38292 978.76 9.53175C976.527 11.7642 972.908 11.7642 970.675 9.53175Z" fill="#672E1F"/>
<path d="M979.079 8.67339C976.847 6.44091 976.847 2.82135 979.079 0.588875C979.228 0.440043 979.469 0.440043 979.618 0.588875C981.851 2.82135 981.851 6.44091 979.618 8.67339C979.469 8.82223 979.228 8.82223 979.079 8.67339Z" fill="#672E1F"/>
<rect x="975.037" y="13.8934" width="6.09773" height="6.09773" rx="0.903367" transform="rotate(-45 975.037 13.8934)" fill="#672E1F"/>
<path d="M979.937 9.53175C979.789 9.38292 979.789 9.14162 979.937 8.99278C982.17 6.76031 985.789 6.76031 988.022 8.99278C988.171 9.14162 988.171 9.38292 988.022 9.53175C985.789 11.7642 982.17 11.7642 979.937 9.53175Z" fill="#672E1F"/>
<path d="M1023.58 65.7491C1023.43 65.6003 1023.43 65.359 1023.58 65.2101C1025.81 62.9777 1029.43 62.9777 1031.66 65.2101C1031.81 65.359 1031.81 65.6003 1031.66 65.7491C1029.43 67.9816 1025.81 67.9816 1023.58 65.7491Z" fill="#672E1F"/>
<path d="M1031.98 64.8907C1029.75 62.6583 1029.75 59.0387 1031.98 56.8062C1032.13 56.6574 1032.37 56.6574 1032.52 56.8062C1034.75 59.0387 1034.75 62.6583 1032.52 64.8907C1032.37 65.0396 1032.13 65.0396 1031.98 64.8907Z" fill="#672E1F"/>
<rect x="1027.94" y="70.1107" width="6.09773" height="6.09773" rx="0.903367" transform="rotate(-45 1027.94 70.1107)" fill="#672E1F"/>
<path d="M1032.84 65.7491C1032.69 65.6003 1032.69 65.359 1032.84 65.2101C1035.07 62.9777 1038.69 62.9777 1040.93 65.2101C1041.07 65.359 1041.07 65.6003 1040.93 65.7491C1038.69 67.9816 1035.07 67.9816 1032.84 65.7491Z" fill="#672E1F"/>
<path d="M868.837 10.8544C868.688 10.7055 868.688 10.4642 868.837 10.3154C871.069 8.08291 874.689 8.08291 876.921 10.3154C877.07 10.4642 877.07 10.7055 876.921 10.8544C874.689 13.0868 871.069 13.0868 868.837 10.8544Z" fill="#672E1F"/>
<path d="M877.241 9.99599C875.008 7.76352 875.008 4.14395 877.241 1.91148C877.389 1.76264 877.631 1.76264 877.779 1.91148C880.012 4.14395 880.012 7.76352 877.779 9.99599C877.631 10.1448 877.389 10.1448 877.241 9.99599Z" fill="#672E1F"/>
<rect x="873.198" y="15.216" width="6.09773" height="6.09773" rx="0.903367" transform="rotate(-45 873.198 15.216)" fill="#672E1F"/>
<path d="M878.099 10.8544C877.95 10.7055 877.95 10.4642 878.099 10.3154C880.331 8.08291 883.951 8.08291 886.183 10.3154C886.332 10.4642 886.332 10.7055 886.183 10.8544C883.951 13.0868 880.331 13.0868 878.099 10.8544Z" fill="#672E1F"/>
<path d="M921.74 67.0719C921.591 66.9231 921.591 66.6818 921.74 66.5329C923.972 64.3005 927.592 64.3005 929.824 66.5329C929.973 66.6818 929.973 66.9231 929.824 67.0719C927.592 69.3044 923.972 69.3044 921.74 67.0719Z" fill="#672E1F"/>
<path d="M930.144 66.2136C927.911 63.9811 927.911 60.3615 930.144 58.129C930.293 57.9802 930.534 57.9802 930.683 58.129C932.915 60.3615 932.915 63.9811 930.683 66.2136C930.534 66.3624 930.293 66.3624 930.144 66.2136Z" fill="#672E1F"/>
<rect x="926.102" y="71.4336" width="6.09773" height="6.09773" rx="0.903367" transform="rotate(-45 926.102 71.4336)" fill="#672E1F"/>
<path d="M931.002 67.0719C930.853 66.9231 930.853 66.6818 931.002 66.5329C933.235 64.3005 936.854 64.3005 939.087 66.5329C939.236 66.6818 939.236 66.9231 939.087 67.0719C936.854 69.3044 933.235 69.3044 931.002 67.0719Z" fill="#672E1F"/>
</g>
<g opacity="0.1" clip-path="url(#clip1_2125_81502)">
<path d="M308.35 12.1769C308.201 12.0281 308.201 11.7868 308.35 11.638C310.583 9.40548 314.202 9.40548 316.435 11.638C316.584 11.7868 316.584 12.0281 316.435 12.1769C314.202 14.4094 310.583 14.4094 308.35 12.1769Z" fill="#672E1F"/>
<path d="M316.754 11.3186C314.522 9.08609 314.522 5.46653 316.754 3.23405C316.903 3.08521 317.144 3.08521 317.293 3.23405C319.526 5.46653 319.526 9.08609 317.293 11.3186C317.144 11.4674 316.903 11.4674 316.754 11.3186Z" fill="#672E1F"/>
<rect x="312.712" y="16.5386" width="6.09773" height="6.09773" rx="0.903367" transform="rotate(-45 312.712 16.5386)" fill="#672E1F"/>
<path d="M317.613 12.1769C317.464 12.0281 317.464 11.7868 317.613 11.638C319.845 9.40548 323.465 9.40548 325.697 11.638C325.846 11.7868 325.846 12.0281 325.697 12.1769C323.465 14.4094 319.845 14.4094 317.613 12.1769Z" fill="#672E1F"/>
<path d="M361.254 68.3945C361.105 68.2457 361.105 68.0044 361.254 67.8555C363.486 65.6231 367.106 65.6231 369.338 67.8555C369.487 68.0044 369.487 68.2457 369.338 68.3945C367.106 70.627 363.486 70.627 361.254 68.3945Z" fill="#672E1F"/>
<path d="M369.657 67.5362C367.425 65.3037 367.425 61.6841 369.657 59.4516C369.806 59.3028 370.048 59.3028 370.196 59.4516C372.429 61.6841 372.429 65.3037 370.196 67.5362C370.048 67.685 369.806 67.685 369.657 67.5362Z" fill="#672E1F"/>
<rect x="365.615" y="72.7562" width="6.09773" height="6.09773" rx="0.903367" transform="rotate(-45 365.615 72.7562)" fill="#672E1F"/>
<path d="M370.516 68.3945C370.367 68.2457 370.367 68.0044 370.516 67.8555C372.748 65.6231 376.368 65.6231 378.6 67.8555C378.749 68.0044 378.749 68.2457 378.6 68.3945C376.368 70.627 372.748 70.627 370.516 68.3945Z" fill="#672E1F"/>
<path d="M206.512 10.8544C206.363 10.7055 206.363 10.4642 206.512 10.3154C208.744 8.08291 212.364 8.08291 214.596 10.3154C214.745 10.4642 214.745 10.7055 214.596 10.8544C212.364 13.0868 208.744 13.0868 206.512 10.8544Z" fill="#672E1F"/>
<path d="M214.916 9.99599C212.683 7.76352 212.683 4.14395 214.916 1.91148C215.064 1.76264 215.306 1.76264 215.455 1.91148C217.687 4.14395 217.687 7.76352 215.455 9.99599C215.306 10.1448 215.064 10.1448 214.916 9.99599Z" fill="#672E1F"/>
<rect x="210.873" y="15.216" width="6.09773" height="6.09773" rx="0.903367" transform="rotate(-45 210.873 15.216)" fill="#672E1F"/>
<path d="M215.774 10.8544C215.625 10.7055 215.625 10.4642 215.774 10.3154C218.006 8.08291 221.626 8.08291 223.858 10.3154C224.007 10.4642 224.007 10.7055 223.858 10.8544C221.626 13.0868 218.006 13.0868 215.774 10.8544Z" fill="#672E1F"/>
<path d="M259.415 67.0719C259.266 66.9231 259.266 66.6818 259.415 66.5329C261.647 64.3005 265.267 64.3005 267.5 66.5329C267.648 66.6818 267.648 66.9231 267.5 67.0719C265.267 69.3044 261.647 69.3044 259.415 67.0719Z" fill="#672E1F"/>
<path d="M267.819 66.2136C265.586 63.9811 265.586 60.3615 267.819 58.129C267.968 57.9802 268.209 57.9802 268.358 58.129C270.59 60.3615 270.59 63.9811 268.358 66.2136C268.209 66.3624 267.968 66.3624 267.819 66.2136Z" fill="#672E1F"/>
<rect x="263.777" y="71.4336" width="6.09773" height="6.09773" rx="0.903367" transform="rotate(-45 263.777 71.4336)" fill="#672E1F"/>
<path d="M268.677 67.0719C268.528 66.9231 268.528 66.6818 268.677 66.5329C270.91 64.3005 274.529 64.3005 276.762 66.5329C276.911 66.6818 276.911 66.9231 276.762 67.0719C274.529 69.3044 270.91 69.3044 268.677 67.0719Z" fill="#672E1F"/>
<path d="M104.673 9.53175C104.524 9.38292 104.524 9.14162 104.673 8.99278C106.906 6.76031 110.525 6.76031 112.758 8.99278C112.907 9.14162 112.907 9.38292 112.758 9.53175C110.525 11.7642 106.906 11.7642 104.673 9.53175Z" fill="#672E1F"/>
<path d="M113.077 8.67339C110.845 6.44091 110.845 2.82135 113.077 0.588875C113.226 0.440043 113.467 0.440043 113.616 0.588875C115.849 2.82135 115.849 6.44091 113.616 8.67339C113.467 8.82223 113.226 8.82223 113.077 8.67339Z" fill="#672E1F"/>
<rect x="109.035" y="13.8934" width="6.09773" height="6.09773" rx="0.903367" transform="rotate(-45 109.035 13.8934)" fill="#672E1F"/>
<path d="M113.935 9.53175C113.787 9.38292 113.787 9.14162 113.935 8.99278C116.168 6.76031 119.788 6.76031 122.02 8.99278C122.169 9.14162 122.169 9.38292 122.02 9.53175C119.788 11.7642 116.168 11.7642 113.935 9.53175Z" fill="#672E1F"/>
<path d="M157.576 65.7491C157.428 65.6003 157.428 65.359 157.576 65.2101C159.809 62.9777 163.428 62.9777 165.661 65.2101C165.81 65.359 165.81 65.6003 165.661 65.7491C163.428 67.9816 159.809 67.9816 157.576 65.7491Z" fill="#672E1F"/>
<path d="M165.98 64.8907C163.748 62.6583 163.748 59.0387 165.98 56.8062C166.129 56.6574 166.37 56.6574 166.519 56.8062C168.752 59.0387 168.752 62.6583 166.519 64.8907C166.37 65.0396 166.129 65.0396 165.98 64.8907Z" fill="#672E1F"/>
<rect x="161.938" y="70.1107" width="6.09773" height="6.09773" rx="0.903367" transform="rotate(-45 161.938 70.1107)" fill="#672E1F"/>
<path d="M166.839 65.7491C166.69 65.6003 166.69 65.359 166.839 65.2101C169.071 62.9777 172.691 62.9777 174.923 65.2101C175.072 65.359 175.072 65.6003 174.923 65.7491C172.691 67.9816 169.071 67.9816 166.839 65.7491Z" fill="#672E1F"/>
<path d="M2.83455 10.8544C2.68572 10.7055 2.68572 10.4642 2.83455 10.3154C5.06703 8.08291 8.68659 8.08291 10.9191 10.3154C11.0679 10.4642 11.0679 10.7055 10.9191 10.8544C8.68659 13.0868 5.06703 13.0868 2.83455 10.8544Z" fill="#672E1F"/>
<path d="M11.2384 9.99599C9.00595 7.76352 9.00595 4.14395 11.2384 1.91148C11.3873 1.76264 11.6286 1.76264 11.7774 1.91148C14.0099 4.14395 14.0099 7.76352 11.7774 9.99599C11.6286 10.1448 11.3873 10.1448 11.2384 9.99599Z" fill="#672E1F"/>
<rect x="7.19617" y="15.216" width="6.09773" height="6.09773" rx="0.903367" transform="rotate(-45 7.19617 15.216)" fill="#672E1F"/>
<path d="M12.0966 10.8544C11.9478 10.7055 11.9478 10.4642 12.0966 10.3154C14.3291 8.08291 17.9487 8.08291 20.1812 10.3154C20.33 10.4642 20.33 10.7055 20.1812 10.8544C17.9487 13.0868 14.3291 13.0868 12.0966 10.8544Z" fill="#672E1F"/>
<path d="M55.738 67.0719C55.5892 66.9231 55.5892 66.6818 55.738 66.5329C57.9705 64.3005 61.59 64.3005 63.8225 66.5329C63.9713 66.6818 63.9713 66.9231 63.8225 67.0719C61.59 69.3044 57.9705 69.3044 55.738 67.0719Z" fill="#672E1F"/>
<path d="M64.1419 66.2136C61.9094 63.9811 61.9094 60.3615 64.1419 58.129C64.2907 57.9802 64.532 57.9802 64.6808 58.129C66.9133 60.3615 66.9133 63.9811 64.6808 66.2136C64.532 66.3624 64.2907 66.3624 64.1419 66.2136Z" fill="#672E1F"/>
<rect x="60.0996" y="71.4336" width="6.09773" height="6.09773" rx="0.903367" transform="rotate(-45 60.0996 71.4336)" fill="#672E1F"/>
<path d="M65.0002 67.0719C64.8514 66.9231 64.8514 66.6818 65.0002 66.5329C67.2327 64.3005 70.8522 64.3005 73.0847 66.5329C73.2335 66.6818 73.2335 66.9231 73.0847 67.0719C70.8522 69.3044 67.2327 69.3044 65.0002 67.0719Z" fill="#672E1F"/>
</g>
<g opacity="0.1" clip-path="url(#clip2_2125_81502)">
<path d="M741.352 12.1769C741.203 12.0281 741.203 11.7868 741.352 11.638C743.585 9.40548 747.204 9.40548 749.437 11.638C749.586 11.7868 749.586 12.0281 749.437 12.1769C747.204 14.4094 743.585 14.4094 741.352 12.1769Z" fill="#672E1F"/>
<path d="M749.756 11.3186C747.524 9.08609 747.524 5.46653 749.756 3.23405C749.905 3.08521 750.146 3.08521 750.295 3.23405C752.528 5.46653 752.528 9.08609 750.295 11.3186C750.146 11.4674 749.905 11.4674 749.756 11.3186Z" fill="#672E1F"/>
<rect x="745.714" y="16.5386" width="6.09773" height="6.09773" rx="0.903367" transform="rotate(-45 745.714 16.5386)" fill="#672E1F"/>
<path d="M750.614 12.1769C750.466 12.0281 750.466 11.7868 750.614 11.638C752.847 9.40548 756.466 9.40548 758.699 11.638C758.848 11.7868 758.848 12.0281 758.699 12.1769C756.466 14.4094 752.847 14.4094 750.614 12.1769Z" fill="#672E1F"/>
<path d="M794.256 68.3945C794.107 68.2457 794.107 68.0044 794.256 67.8555C796.488 65.6231 800.108 65.6231 802.34 67.8555C802.489 68.0044 802.489 68.2457 802.34 68.3945C800.108 70.627 796.488 70.627 794.256 68.3945Z" fill="#672E1F"/>
<path d="M802.659 67.5362C800.427 65.3037 800.427 61.6841 802.659 59.4516C802.808 59.3028 803.05 59.3028 803.198 59.4516C805.431 61.6841 805.431 65.3037 803.198 67.5362C803.05 67.685 802.808 67.685 802.659 67.5362Z" fill="#672E1F"/>
<rect x="798.617" y="72.7562" width="6.09773" height="6.09773" rx="0.903367" transform="rotate(-45 798.617 72.7562)" fill="#672E1F"/>
<path d="M803.518 68.3945C803.369 68.2457 803.369 68.0044 803.518 67.8555C805.75 65.6231 809.37 65.6231 811.602 67.8555C811.751 68.0044 811.751 68.2457 811.602 68.3945C809.37 70.627 805.75 70.627 803.518 68.3945Z" fill="#672E1F"/>
<path d="M639.514 10.8544C639.365 10.7055 639.365 10.4642 639.514 10.3154C641.746 8.08291 645.366 8.08291 647.598 10.3154C647.747 10.4642 647.747 10.7055 647.598 10.8544C645.366 13.0868 641.746 13.0868 639.514 10.8544Z" fill="#672E1F"/>
<path d="M647.918 9.99599C645.685 7.76352 645.685 4.14395 647.918 1.91148C648.066 1.76264 648.308 1.76264 648.456 1.91148C650.689 4.14395 650.689 7.76352 648.456 9.99599C648.308 10.1448 648.066 10.1448 647.918 9.99599Z" fill="#672E1F"/>
<rect x="643.875" y="15.216" width="6.09773" height="6.09773" rx="0.903367" transform="rotate(-45 643.875 15.216)" fill="#672E1F"/>
<path d="M648.776 10.8544C648.627 10.7055 648.627 10.4642 648.776 10.3154C651.008 8.08291 654.628 8.08291 656.86 10.3154C657.009 10.4642 657.009 10.7055 656.86 10.8544C654.628 13.0868 651.008 13.0868 648.776 10.8544Z" fill="#672E1F"/>
<path d="M692.417 67.0719C692.268 66.9231 692.268 66.6818 692.417 66.5329C694.649 64.3005 698.269 64.3005 700.501 66.5329C700.65 66.6818 700.65 66.9231 700.501 67.0719C698.269 69.3044 694.649 69.3044 692.417 67.0719Z" fill="#672E1F"/>
<path d="M700.821 66.2136C698.588 63.9811 698.588 60.3615 700.821 58.129C700.97 57.9802 701.211 57.9802 701.36 58.129C703.592 60.3615 703.592 63.9811 701.36 66.2136C701.211 66.3624 700.97 66.3624 700.821 66.2136Z" fill="#672E1F"/>
<rect x="696.779" y="71.4336" width="6.09773" height="6.09773" rx="0.903367" transform="rotate(-45 696.779 71.4336)" fill="#672E1F"/>
<path d="M701.679 67.0719C701.53 66.9231 701.53 66.6818 701.679 66.5329C703.912 64.3005 707.531 64.3005 709.764 66.5329C709.913 66.6818 709.913 66.9231 709.764 67.0719C707.531 69.3044 703.912 69.3044 701.679 67.0719Z" fill="#672E1F"/>
<path d="M537.675 9.53175C537.526 9.38292 537.526 9.14162 537.675 8.99278C539.908 6.76031 543.527 6.76031 545.76 8.99278C545.909 9.14162 545.909 9.38292 545.76 9.53175C543.527 11.7642 539.908 11.7642 537.675 9.53175Z" fill="#672E1F"/>
<path d="M546.079 8.67339C543.847 6.44091 543.847 2.82135 546.079 0.588875C546.228 0.440043 546.469 0.440043 546.618 0.588875C548.851 2.82135 548.851 6.44091 546.618 8.67339C546.469 8.82223 546.228 8.82223 546.079 8.67339Z" fill="#672E1F"/>
<rect x="542.037" y="13.8934" width="6.09773" height="6.09773" rx="0.903367" transform="rotate(-45 542.037 13.8934)" fill="#672E1F"/>
<path d="M546.937 9.53175C546.789 9.38292 546.789 9.14162 546.937 8.99278C549.17 6.76031 552.789 6.76031 555.022 8.99278C555.171 9.14162 555.171 9.38292 555.022 9.53175C552.789 11.7642 549.17 11.7642 546.937 9.53175Z" fill="#672E1F"/>
<path d="M590.578 65.7491C590.429 65.6003 590.429 65.359 590.578 65.2101C592.811 62.9777 596.43 62.9777 598.663 65.2101C598.812 65.359 598.812 65.6003 598.663 65.7491C596.43 67.9816 592.811 67.9816 590.578 65.7491Z" fill="#672E1F"/>
<path d="M598.982 64.8907C596.75 62.6583 596.75 59.0387 598.982 56.8062C599.131 56.6574 599.372 56.6574 599.521 56.8062C601.754 59.0387 601.754 62.6583 599.521 64.8907C599.372 65.0396 599.131 65.0396 598.982 64.8907Z" fill="#672E1F"/>
<rect x="594.94" y="70.1107" width="6.09773" height="6.09773" rx="0.903367" transform="rotate(-45 594.94 70.1107)" fill="#672E1F"/>
<path d="M599.841 65.7491C599.692 65.6003 599.692 65.359 599.841 65.2101C602.073 62.9777 605.693 62.9777 607.925 65.2101C608.074 65.359 608.074 65.6003 607.925 65.7491C605.693 67.9816 602.073 67.9816 599.841 65.7491Z" fill="#672E1F"/>
<path d="M435.837 10.8544C435.688 10.7055 435.688 10.4642 435.837 10.3154C438.069 8.08291 441.689 8.08291 443.921 10.3154C444.07 10.4642 444.07 10.7055 443.921 10.8544C441.689 13.0868 438.069 13.0868 435.837 10.8544Z" fill="#672E1F"/>
<path d="M444.241 9.99599C442.008 7.76352 442.008 4.14395 444.241 1.91148C444.389 1.76264 444.631 1.76264 444.779 1.91148C447.012 4.14395 447.012 7.76352 444.779 9.99599C444.631 10.1448 444.389 10.1448 444.241 9.99599Z" fill="#672E1F"/>
<rect x="440.198" y="15.216" width="6.09773" height="6.09773" rx="0.903367" transform="rotate(-45 440.198 15.216)" fill="#672E1F"/>
<path d="M445.099 10.8544C444.95 10.7055 444.95 10.4642 445.099 10.3154C447.331 8.08291 450.951 8.08291 453.183 10.3154C453.332 10.4642 453.332 10.7055 453.183 10.8544C450.951 13.0868 447.331 13.0868 445.099 10.8544Z" fill="#672E1F"/>
<path d="M488.74 67.0719C488.591 66.9231 488.591 66.6818 488.74 66.5329C490.972 64.3005 494.592 64.3005 496.824 66.5329C496.973 66.6818 496.973 66.9231 496.824 67.0719C494.592 69.3044 490.972 69.3044 488.74 67.0719Z" fill="#672E1F"/>
<path d="M497.144 66.2136C494.911 63.9811 494.911 60.3615 497.144 58.129C497.293 57.9802 497.534 57.9802 497.683 58.129C499.915 60.3615 499.915 63.9811 497.683 66.2136C497.534 66.3624 497.293 66.3624 497.144 66.2136Z" fill="#672E1F"/>
<rect x="493.102" y="71.4336" width="6.09773" height="6.09773" rx="0.903367" transform="rotate(-45 493.102 71.4336)" fill="#672E1F"/>
<path d="M498.002 67.0719C497.853 66.9231 497.853 66.6818 498.002 66.5329C500.235 64.3005 503.854 64.3005 506.087 66.5329C506.236 66.6818 506.236 66.9231 506.087 67.0719C503.854 69.3044 500.235 69.3044 498.002 67.0719Z" fill="#672E1F"/>
</g>
<defs>
<clipPath id="clip0_2125_81502">
<rect width="414" height="102" fill="white" transform="translate(865.922)"/>
</clipPath>
<clipPath id="clip1_2125_81502">
<rect width="414" height="102" fill="white" transform="translate(-0.0800781)"/>
</clipPath>
<clipPath id="clip2_2125_81502">
<rect width="414" height="102" fill="white" transform="translate(432.922)"/>
</clipPath>
</defs>
</svg>
